HIERARCHY
ROOT Hips
{
  OFFSET 0 0 0
  CHANNELS 6 Xposition Yposition Zposition Zrotation Xrotation Yrotation
  JOINT Spine
  {
    OFFSET 0.00000000 0.00000000 0.00000000
    CHANNELS 3 Zrotation Xrotation Yrotation
    JOINT Spine1
    {
      OFFSET 0.19000000 0.00000000 0.00000000
      CHANNELS 3 Zrotation Xrotation Yrotation
      JOINT Neck
      {
        OFFSET 0.22500000 0.00600000 0.00000000
        CHANNELS 3 Zrotation Xrotation Yrotation
        JOINT Head
        {
          OFFSET 0.14000000 0.00030878 0.00000000
          CHANNELS 3 Zrotation Xrotation Yrotation
          End Site
          {
            OFFSET 0.17000000 0.00000000 0.00000000
          }
        }
      }
      JOINT LeftShoulder
      {
        OFFSET 0.19800000 0.03700000 0.04300000
        CHANNELS 3 Zrotation Xrotation Yrotation
        JOINT LeftArm
        {
          OFFSET 0.08000000 0.00000000 0.00000000
          CHANNELS 3 Zrotation Xrotation Yrotation
          JOINT LeftForeArm
          {
            OFFSET 0.15200000 0.00000000 0.00000000
            CHANNELS 3 Zrotation Xrotation Yrotation
            JOINT LeftHand
            {
              OFFSET 0.17800000 0.00000000 0.00000000
              CHANNELS 3 Zrotation Xrotation Yrotation
              End Site
              {
                OFFSET 0.07200000 0.00000000 0.00000000
              }
            }
          }
        }
      }
      JOINT RightShoulder
      {
        OFFSET 0.19800000 0.03700000 -0.04300000
        CHANNELS 3 Zrotation Xrotation Yrotation
        JOINT RightArm
        {
          OFFSET 0.08000000 0.00000000 0.00151654
          CHANNELS 3 Zrotation Xrotation Yrotation
          JOINT RightForeArm
          {
            OFFSET 0.15200000 0.00000000 0.00000000
            CHANNELS 3 Zrotation Xrotation Yrotation
            JOINT RightHand
            {
              OFFSET 0.17800000 0.00000000 0.00000000
              CHANNELS 3 Zrotation Xrotation Yrotation
              End Site
              {
                OFFSET 0.07200000 0.00000000 0.00000000
              }
            }
          }
        }
      }
    }
  }
  JOINT LeftUpLeg
  {
    OFFSET 0.05984250 -0.07666000 0.04788790
    CHANNELS 3 Zrotation Xrotation Yrotation
    JOINT LeftLeg
    {
      OFFSET 0.16000000 0.00000000 0.00000000
      CHANNELS 3 Zrotation Xrotation Yrotation
      JOINT LeftFoot
      {
        OFFSET 0.18000000 0.00000000 0.00000000
        CHANNELS 3 Zrotation Xrotation Yrotation
        End Site
        {
          OFFSET 0.00000000 -0.10800000 0.00000000
        }
      }
    }
  }
  JOINT RightUpLeg
  {
    OFFSET 0.05984250 -0.07665980 -0.04788790
    CHANNELS 3 Zrotation Xrotation Yrotation
    JOINT RightLeg
    {
      OFFSET 0.16000000 0.00000000 0.00000000
      CHANNELS 3 Zrotation Xrotation Yrotation
      JOINT RightFoot
      {
        OFFSET 0.18000000 0.00000000 0.00000000
        CHANNELS 3 Zrotation Xrotation Yrotation
        End Site
        {
          OFFSET 0.00000000 -0.10800000 0.00000000
        }
      }
    }
  }
  JOINT Tail
  {
    OFFSET 0.06836960 -0.00722574 0.00000000
    CHANNELS 3 Zrotation Xrotation Yrotation
    JOINT Tail1
    {
      OFFSET 0.12000000 0.00000000 0.00000000
      CHANNELS 3 Zrotation Xrotation Yrotation
      End Site
      {
        OFFSET 0.12000000 0.00000000 0.00000000
      }
    }
  }
}
MOTION
Frames:	21
Frame Time:	0.0166667
-0.3196907 0.1022660 0.5557954 -100.503 63.3016 3.66949 -132.927 -1.16725 -8.26258 4.68516 3.75336 -4.18853 0.207069 8.44794 -9.35643 148.795 82.6259 -111.34 -108.696 -35.0816 -136.45 75.3211 -66.3986 -161.744 -74.4154 6.05049 1.36833 3.23586 0.561371 -9.90472 75.6843 -31.2558 48.8121 99.6074 -78.0534 -0.683684 -75.7607 -12.277 -3.65365 3.43897 0.254043 -0.0719095 -123.367 33.4031 -23.8576 162.805 36.1033 -2.39336 -25.1953 -1.98127 10.3952 168.988 -55.0293 -48.9758 164.748 -47.5144 -5.96421 -8.20679 -14.5668 -47.6819 87.6054 -28.8137 33.0372 17.0418 26.9046 -17.0539 
-0.3195419 0.1023270 0.5556945 -100.488 63.3187 3.61444 -132.921 -1.18518 -8.37672 4.70774 3.77771 -4.08547 0.177819 8.46005 -9.354 147.951 82.5794 -110.507 -108.698 -35.1025 -136.412 75.3983 -66.4667 -161.512 -74.3711 6.28371 1.25093 3.07756 0.563033 -9.81346 75.6912 -31.2851 48.8998 99.6815 -77.9998 -0.778203 -75.7725 -12.3819 -3.58249 3.39645 0.252959 -0.186349 -123.233 33.1966 -24.0492 162.779 35.8718 -2.40002 -25.2998 -2.004 10.2603 169.094 -54.9827 -48.9646 164.769 -47.5737 -5.95929 -8.34978 -14.4916 -47.6698 87.6081 -28.7194 33.023 17.0022 26.8724 -17.0277 
-0.3194047 0.1021380 0.5555940 -100.497 63.2646 3.59176 -132.861 -1.20425 -8.49175 4.64502 3.79304 -3.87604 0.16828 8.26473 -9.31345 145.713 82.6496 -108.343 -108.677 -35.0807 -136.397 75.4754 -66.5598 -161.304 -74.3517 6.37238 1.16406 3.05888 0.568754 -9.82205 75.6472 -31.3083 48.7977 100.787 -77.8491 0.293322 -75.9747 -12.293 -3.64618 3.45315 0.24976 -0.123047 -123.518 33.188 -23.92 162.834 35.6463 -2.39996 -25.0364 -1.96982 10.3693 169.108 -55.1107 -49.1048 164.754 -47.6773 -5.97429 -8.65228 -14.3619 -47.7004 87.585 -28.6675 32.9446 16.984 26.8647 -17.0215 
-0.3193857 0.1018320 0.5557230 -100.683 63.1557 3.78468 -132.54 -1.2635 -8.3982 4.31231 3.72534 -3.88261 0.127966 8.25641 -9.34198 146.852 82.7104 -109.394 -108.686 -35.0793 -136.424 74.6049 -66.6274 -162.404 -74.6739 6.06484 1.53415 3.06639 0.578048 -10.1072 75.6473 -31.1869 48.5339 102.362 -77.5424 1.76655 -76.3009 -12.2671 -3.73106 3.43594 0.243527 0.0490209 -123.553 33.3672 -23.744 162.83 36.0277 -2.39803 -25.0406 -1.95846 10.4834 169.545 -55.4704 -48.9771 164.647 -47.8379 -6.01956 -9.04284 -14.154 -47.5815 87.6209 -28.6869 32.8312 17.0092 26.8533 -17.0354 
-0.3193447 0.1018470 0.5557519 -100.748 63.1556 3.87674 -132.39 -1.24103 -8.3816 4.18044 3.75521 -3.86334 -0.0248118 8.70491 -8.51414 133.529 81.2436 -95.3113 -108.706 -35.1016 -136.437 74.5569 -66.7334 -162.356 -74.6393 6.15319 1.42923 3.00398 0.602698 -10.2173 75.6847 -31.1804 48.6495 102.941 -77.3885 1.95351 -76.4298 -12.3576 -3.65335 3.40463 0.235322 0.0441747 -123.602 33.4852 -23.7686 162.832 36.1395 -2.39659 -24.8923 -1.93691 10.4771 170.169 -55.5591 -48.4637 164.587 -47.8971 -6.03106 -9.19293 -14.0255 -47.3648 87.6435 -28.7345 32.8186 17.0208 26.8635 -17.0274 
-0.3191460 0.1021640 0.5557458 -100.577 63.1763 3.71964 -132.471 -1.2195 -8.39137 4.24435 3.77752 -3.89335 -0.0322931 8.293 -9.44229 148.841 82.768 -111.168 -108.764 -35.1543 -136.497 74.4817 -66.3357 -161.907 -74.5636 6.36623 1.31693 2.87728 0.576126 -9.89748 75.6385 -31.2923 48.7331 102.166 -77.5982 1.0565 -76.1977 -12.5167 -3.53418 3.31988 0.235006 -0.0200256 -123.608 33.0745 -23.8843 162.752 35.5974 -2.4057 -24.9536 -1.96893 10.2218 170.707 -55.5671 -47.8585 164.561 -47.8384 -6.02656 -9.2216 -13.9294 -47.0495 87.5793 -28.7653 32.8782 17.066 26.8772 -17.0674 
-0.3190966 0.1021420 0.5558415 -100.494 63.1700 3.63701 -132.466 -1.24203 -8.34939 4.18802 3.74372 -3.94649 0.0290906 8.40469 -9.28947 146.031 82.5387 -108.452 -108.636 -35.0522 -136.338 74.5213 -66.5776 -162.105 -74.6905 6.31304 1.2515 3.01247 0.5936 -10.0284 75.6564 -31.1642 48.5161 102.679 -77.391 1.72464 -76.4195 -12.3496 -3.65295 3.45684 0.23807 0.0437879 -123.649 32.986 -23.94 162.725 35.5943 -2.41458 -24.9662 -1.9715 10.1794 171.058 -55.732 -47.5248 164.48 -47.9244 -6.05758 -9.43697 -13.7869 -46.8623 87.5354 -28.8264 32.9082 17.082 26.9331 -17.0933 
-0.3191927 0.1020210 0.5558286 -100.544 63.1693 3.68102 -132.532 -1.20791 -8.35688 4.29648 3.76932 -3.92702 0.0608799 8.46403 -9.40549 148.027 82.584 -110.448 -108.675 -35.0811 -136.39 74.8139 -66.6959 -162.084 -74.6813 6.10089 1.43495 3.07436 0.598715 -10.1792 75.6727 -31.164 48.5722 102.697 -77.3409 1.80829 -76.4479 -12.3379 -3.6781 3.46679 0.241131 0.0493721 -123.781 33.4004 -23.6945 162.799 35.8748 -2.40281 -24.7868 -1.92592 10.5016 171.32 -56.0409 -47.4666 164.318 -48.2917 -6.14202 -9.80291 -13.6056 -46.8171 87.5602 -28.8129 32.907 17.0723 26.9242 -17.0854 
-0.3191821 0.1022610 0.5557691 -100.484 63.1869 3.62316 -132.611 -1.20403 -8.36618 4.35235 3.77221 -3.94582 0.126467 8.47526 -9.28251 146.428 82.4993 -108.965 -108.635 -35.0134 -136.413 75.0126 -66.4177 -161.833 -74.5587 6.04296 1.40215 3.18015 0.584822 -10.0464 75.658 -31.207 48.6151 102.104 -77.3748 1.12357 -76.2777 -12.4058 -3.58311 3.42899 0.243058 0.0098115 -123.75 33.5883 -23.6995 162.793 36.0859 -2.40172 -24.6837 -1.9032 10.6212 172.237 -56.2583 -46.7391 164.176 -48.4264 -6.18824 -10.1044 -13.3764 -46.4507 87.5318 -28.874 32.9405 17.1002 26.9754 -17.1135 
-0.3189752 0.1024490 0.5557079 -100.421 63.2229 3.59232 -132.711 -1.1648 -8.35202 4.43135 3.80365 -4.01087 0.164098 8.49934 -9.18702 145.999 82.4524 -108.522 -108.683 -35.0423 -136.49 75.6435 -67.0892 -162.49 -74.5043 5.57693 1.86492 3.17311 0.622292 -10.4793 75.6899 -31.1885 48.6851 101.331 -77.3486 0.29366 -76.1387 -12.3383 -3.55216 3.49339 0.228144 0.00886739 -123.34 32.6224 -24.2162 162.555 35.4829 -2.43466 -25.3642 -2.03963 9.98516 173.293 -56.2524 -45.6749 164.147 -48.3234 -6.17863 -10.2955 -13.1991 -46.0455 87.5063 -28.9394 32.9624 17.1052 27.0087 -17.0979 
-0.3190769 0.1023000 0.5557251 -100.372 63.2146 3.56569 -132.798 -1.18218 -8.29336 4.45203 3.76081 -4.0986 0.185766 8.53124 -9.11673 146.216 82.4324 -108.74 -108.679 -35.0735 -136.418 75.8628 -67.3676 -162.606 -74.4435 5.42296 1.90821 3.34809 0.622065 -10.5735 75.6779 -31.2082 48.6865 100.559 -77.7485 -0.0792631 -75.9752 -12.211 -3.62399 3.59708 0.248281 -0.0350594 -123.564 33.1413 -23.98 162.649 35.759 -2.41894 -25.0587 -1.98145 10.3263 173.7 -56.5924 -45.4995 163.993 -48.6199 -6.25291 -10.8759 -12.9408 -46.0142 87.4568 -29.0427 32.9391 17.0508 27.1195 -17.1536 
-0.3191724 0.1020630 0.5557114 -100.475 63.1915 3.65633 -132.831 -1.18629 -8.27299 4.53647 3.73935 -4.1008 0.19027 8.5211 -9.1439 146.732 82.4746 -109.341 -108.671 -35.0786 -136.383 75.4346 -66.5486 -161.601 -74.3757 6.30071 1.25219 3.20649 0.562186 -9.80968 75.6859 -31.2408 48.7853 100.159 -77.9347 -0.255084 -75.9259 -12.2871 -3.67149 3.52547 0.274007 -0.206241 -123.646 33.5126 -23.8144 162.722 36.043 -2.40817 -24.8954 -1.94013 10.6073 174.255 -56.9349 -45.2836 163.851 -48.9403 -6.32394 -11.3861 -12.6899 -45.9118 87.5028 -28.9579 32.8892 16.9843 27.0608 -17.0876 
-0.3190710 0.1020540 0.5555114 -100.479 63.1861 3.59693 -132.927 -1.18104 -8.32071 4.68291 3.75102 -4.08082 0.196242 8.5081 -9.19226 146.377 82.4877 -109.187 -108.674 -35.0702 -136.41 75.7326 -66.6626 -161.413 -74.3471 6.35188 1.17555 3.25679 0.567022 -9.80713 75.6812 -31.3005 48.8985 99.8555 -77.9678 -0.612905 -75.8725 -12.262 -3.60487 3.61116 0.268674 -0.249579 -123.659 33.3054 -23.8464 162.752 35.8649 -2.4196 -24.9545 -1.9493 10.6058 174.384 -57.0732 -45.2664 163.773 -49.1787 -6.37635 -11.6057 -12.5765 -45.8565 87.532 -28.7597 32.8848 16.9905 26.9254 -17.0308 
-0.3189141 0.1019960 0.5555793 -100.615 63.1861 3.69213 -132.633 -1.31882 -8.4734 4.18876 3.69023 -3.78962 0.4693 8.55936 -9.49479 147.832 82.5031 -110.733 -108.318 -34.6809 -136.175 74.9949 -66.5725 -162.296 -74.5149 6.2799 1.19813 3.36728 0.569245 -9.90355 75.6079 -31.2033 48.4336 101.017 -77.9178 0.648181 -75.9621 -12.2582 -3.58976 3.63696 0.241048 -0.0356795 -123.592 33.225 -23.8964 162.722 35.7783 -2.42318 -24.9749 -1.95803 10.5766 174.715 -57.1558 -45.1312 163.736 -49.2274 -6.39211 -11.8647 -12.4415 -45.7476 87.5966 -28.6869 32.8606 16.9761 26.8885 -17 
-0.3188987 0.1017090 0.5557350 -100.764 63.1660 3.86882 -132.606 -1.22085 -8.27975 4.34762 3.73449 -4.1059 0.228531 8.41665 -9.19641 146.7 82.5807 -109.501 -108.648 -35.028 -136.421 74.8918 -66.6769 -162.187 -74.5898 6.4709 1.17851 3.26579 0.558976 -9.78671 75.6814 -31.2581 48.8072 100.735 -78.0908 0.310111 -76.0017 -12.2096 -3.65143 3.64063 0.251663 -0.0907319 -123.611 33.2619 -23.8382 162.709 35.768 -2.41749 -24.9823 -1.9618 10.5783 175.411 -57.1957 -44.5469 163.717 -49.0962 -6.37829 -12.0713 -12.3068 -45.5114 87.6695 -28.6448 32.8276 16.9584 26.8163 -16.9839 
-0.3189764 0.1013090 0.5557302 -101.038 63.1413 4.13710 -132.431 -1.21319 -8.26419 4.26449 3.74738 -4.07405 0.16717 8.45509 -9.1706 145.843 82.4943 -108.489 -108.674 -35.0854 -136.38 74.9694 -66.9413 -162.256 -74.5347 6.56232 1.21398 3.08096 0.571858 -9.86165 75.6837 -31.274 48.8497 101.24 -78.1783 0.821035 -76.1026 -12.167 -3.68194 3.68058 0.252483 -0.0804532 -123.5 33.692 -23.7969 162.748 36.1909 -2.40498 -24.9058 -1.93636 10.7172 175.065 -57.3196 -45.0748 163.668 -49.4162 -6.42222 -12.1795 -12.2949 -45.7305 87.7953 -28.5796 32.7787 16.9325 26.7478 -16.9669 
-0.3189016 0.1014090 0.5556588 -100.997 63.1791 4.06840 -132.4 -1.19838 -8.37684 4.23738 3.8051 -3.94137 0.122103 8.35806 -9.14634 143.804 82.4761 -106.514 -108.725 -35.1382 -136.418 75.6907 -67.6659 -162.769 -74.4567 5.73806 1.91121 3.08978 0.63795 -10.6267 75.6607 -31.2812 48.7856 102.07 -77.8532 1.37169 -76.2458 -12.2646 -3.64636 3.62537 0.248287 -0.0931346 -123.601 34.0155 -23.7633 162.81 36.2598 -2.3961 -24.6328 -1.88629 10.8825 175.265 -57.3095 -44.9472 163.622 -49.4812 -6.43664 -12.2926 -12.2169 -45.6226 87.7986 -28.5624 32.8441 16.9355 26.7554 -16.9716 
-0.3185422 0.1015890 0.5557342 -100.906 63.1039 3.97215 -132.249 -1.24493 -8.33015 4.00048 3.75621 -3.94814 0.116219 8.45021 -9.1772 143.747 82.3853 -106.339 -108.605 -34.9592 -136.437 74.7454 -67.0958 -162.879 -74.7615 6.00831 1.5363 3.25737 0.628626 -10.4538 75.6707 -31.1756 48.5903 102.999 -77.5689 2.06326 -76.4531 -12.2886 -3.62759 3.55837 0.225709 0.139433 -123.853 33.454 -23.7073 162.741 35.7143 -2.4141 -24.5809 -1.90089 10.6635 175.592 -57.4656 -44.6609 163.576 -49.5363 -6.45802 -12.4863 -12.0953 -45.4432 87.7032 -28.6522 32.7743 17.0212 26.8329 -17.0424 
-0.3184266 0.1014270 0.5559362 -101.067 63.0328 4.12076 -132.03 -1.27814 -8.24943 3.79395 3.71668 -4.01396 0.10164 8.45292 -9.0972 143.838 82.3898 -106.425 -108.71 -35.0886 -136.475 74.3068 -67.0613 -163.082 -74.7916 6.00332 1.56314 3.22441 0.62319 -10.4315 75.6944 -31.1253 48.5626 103.433 -77.6147 2.53648 -76.5198 -12.2825 -3.6597 3.5552 0.227184 0.24414 -124.069 33.4215 -23.5699 162.753 35.6163 -2.4159 -24.316 -1.86625 10.7205 176.161 -57.6831 -44.245 163.487 -49.6499 -6.49362 -12.6846 -11.9586 -45.2112 87.7492 -28.6586 32.7153 17.0507 26.8196 -17.0237 
-0.3185800 0.1012110 0.5559231 -101.190 63.0565 4.22809 -132.099 -1.24331 -8.25957 3.97386 3.73897 -3.98407 0.0528877 8.4387 -9.16856 144.135 82.4282 -106.768 -108.723 -35.1296 -136.429 74.9477 -67.3115 -162.935 -74.6475 5.79066 1.78617 3.16329 0.63396 -10.5554 75.6528 -31.2025 48.587 103.102 -77.5676 2.16683 -76.5026 -12.366 -3.6401 3.57804 0.252489 0.0414222 -123.95 33.789 -23.5708 162.797 36.0324 -2.41 -24.2366 -1.83552 10.8844 176.042 -57.7679 -44.3934 163.396 -49.9382 -6.54954 -12.6906 -11.9503 -45.2466 87.8354 -28.5809 32.7484 17.0259 26.7561 -17.0101 
-0.3185991 0.1015120 0.5558146 -100.919 63.1145 3.98850 -132.308 -1.20215 -8.27278 4.10843 3.77055 -4.01213 0.0139247 8.48008 -9.17726 144.493 82.4078 -107.071 -108.717 -35.1408 -136.39 75.4407 -67.3077 -162.189 -74.4074 6.23204 1.43211 3.03983 0.624031 -10.2742 75.6305 -31.2611 48.6378 102.495 -77.7036 1.54343 -76.3135 -12.3271 -3.57555 3.55335 0.233777 0.168986 -123.935 34.161 -23.5433 162.796 36.3709 -2.40325 -24.2119 -1.81545 11.0299 176.512 -57.8544 -43.9366 163.268 -50.0522 -6.59269 -12.9131 -11.8061 -45.0333 87.717 -28.7228 32.8397 17.1032 26.8581 -17.0717 
